<?xml version="1.0" standalone="no"?>
<!DOCTYPE svg PUBLIC "-//W3C//DTD SVG 20010904//EN"
 "http://www.w3.org/TR/2001/REC-SVG-20010904/DTD/svg10.dtd">
<svg version="1.0" xmlns="http://www.w3.org/2000/svg"
 width="739.000000pt" height="136.000000pt" viewBox="0 0 739.000000 136.000000"
 preserveAspectRatio="xMidYMid meet">
<metadata>
Created by potrace 1.15, written by Peter Selinger 2001-2017
</metadata>
<g transform="translate(0.000000,136.000000) scale(0.100000,-0.100000)"
fill="#000000" stroke="none">
<path d="M5772 1292 c-10 -7 -12 -127 -10 -567 l3 -558 763 -1 762 -2 -2 566
-3 565 -750 2 c-412 1 -756 -1 -763 -5z m1461 -30 l27 -2 0 -530 c0 -498 -1
-530 -17 -531 -10 -1 -333 -1 -718 0 -385 1 -708 1 -717 1 -17 0 -18 32 -18
528 0 291 2 531 4 533 4 4 1374 4 1439 1z"/>
<path d="M6740 1224 c-140 -7 -307 -15 -370 -18 -63 -3 -178 -8 -255 -11 -142
-6 -236 -13 -242 -19 -3 -3 -11 -294 -17 -648 -3 -187 -2 -208 13 -209 9 0
306 -24 661 -53 435 -35 647 -48 652 -41 3 5 9 236 13 513 l8 503 -104 -3
c-57 -1 -219 -8 -359 -14z m173 -409 c49 -104 104 -223 122 -262 l34 -73 -57
0 -57 0 -33 74 c-23 52 -40 76 -55 80 -12 3 -66 6 -120 6 l-98 0 -31 -70 c-30
-68 -32 -70 -67 -70 -20 0 -41 4 -47 8 -8 5 26 91 102 262 l112 255 44 5 c31
4 46 1 52 -10 5 -8 50 -100 99 -205z m-558 161 c58 -45 83 -132 54 -189 -17
-33 -61 -77 -77 -77 -19 0 -12 -16 46 -102 27 -40 52 -79 56 -85 5 -10 -5 -13
-41 -13 l-48 0 -58 90 -58 90 -54 0 -55 0 0 -85 c0 -92 -2 -94 -57 -79 l-23 6
0 234 0 233 78 3 c173 7 197 4 237 -26z"/>
<path d="M6751 899 c-5 -13 -25 -61 -45 -106 -20 -45 -36 -83 -36 -85 0 -3 43
-5 95 -7 52 -1 95 1 95 5 0 10 -82 198 -91 208 -5 5 -12 -1 -18 -15z"/>
<path d="M6153 933 l-33 -4 0 -85 0 -84 84 0 c79 0 86 2 105 26 31 39 28 89
-8 125 -30 30 -55 33 -148 22z"/>
<path d="M4680 818 c0 -300 3 -409 13 -427 19 -38 62 -63 115 -69 48 -4 147
13 156 27 3 4 0 28 -6 54 l-10 47 -46 -6 c-40 -5 -50 -3 -67 16 -19 21 -20 39
-23 391 l-3 369 -64 0 -65 0 0 -402z"/>
<path d="M137 1185 c-4 -8 -6 -203 -6 -435 l0 -420 72 0 72 0 0 148 0 147 100
2 100 3 80 -131 c44 -71 84 -139 89 -149 8 -17 19 -20 89 -20 65 0 78 3 74 14
-3 8 -47 81 -98 163 -83 133 -90 148 -74 158 162 92 194 305 69 444 -73 81
-112 91 -358 91 -170 0 -205 -2 -209 -15z m432 -132 c68 -52 89 -135 53 -216
-33 -74 -54 -82 -212 -82 l-135 0 -3 148 c-2 81 -2 153 1 160 3 9 41 11 137
10 113 -1 137 -5 159 -20z"/>
<path d="M2575 1164 c-8 -20 -15 -38 -15 -40 0 -1 -70 -178 -155 -393 -85
-214 -155 -392 -155 -395 0 -3 33 -6 73 -6 l73 0 38 103 c20 56 41 109 46 117
7 11 41 15 150 18 77 2 151 1 164 -2 19 -5 31 -26 67 -121 l44 -115 73 0 c39
0 72 2 72 5 0 5 -295 756 -325 828 -15 37 -15 37 -75 37 -59 0 -60 0 -75 -36z
m143 -310 c34 -91 62 -169 62 -175 0 -5 -57 -9 -135 -9 l-135 0 19 48 c10 26
40 104 67 174 27 71 52 128 55 128 3 0 34 -74 67 -166z"/>
<path d="M1082 962 c-94 -34 -178 -123 -203 -215 -16 -61 -13 -167 7 -218 55
-141 175 -216 332 -207 198 12 327 174 300 380 -13 106 -79 198 -175 244 -74
37 -184 43 -261 16z m204 -127 c115 -68 127 -278 19 -361 -38 -29 -116 -45
-157 -33 -83 23 -137 103 -138 202 0 168 145 269 276 192z"/>
<path d="M1855 973 c-211 -47 -315 -276 -216 -478 56 -113 159 -175 289 -175
104 0 164 22 228 84 30 29 54 59 54 67 0 10 -22 21 -62 32 l-63 16 -23 -24
c-70 -76 -190 -77 -259 -3 -126 135 -46 368 127 368 53 0 101 -21 128 -54 l21
-27 58 17 c32 10 61 20 65 24 13 10 -30 68 -73 100 -69 50 -187 73 -274 53z"/>
<path d="M3397 966 c-41 -15 -56 -25 -104 -70 l-33 -30 0 52 0 52 -60 0 -60 0
0 -450 0 -450 70 0 70 0 0 183 0 183 48 -46 c94 -91 244 -96 343 -12 228 196
103 604 -185 602 -28 -1 -68 -7 -89 -14z m148 -129 c51 -29 96 -102 103 -166
15 -155 -121 -276 -246 -220 -97 42 -122 85 -122 204 0 104 14 135 78 176 59
37 128 40 187 6z"/>
<path d="M4179 971 c-44 -14 -73 -32 -111 -69 l-38 -36 0 52 0 52 -60 0 -60 0
0 -450 0 -450 70 0 71 0 -1 168 c0 92 -1 173 0 180 0 7 16 -4 36 -24 53 -52
106 -74 185 -74 165 0 282 134 282 325 0 188 -115 323 -282 331 -36 2 -78 0
-92 -5z m114 -125 c18 -7 47 -28 64 -46 111 -114 51 -333 -98 -360 -56 -10
-103 4 -149 46 -56 51 -68 85 -64 179 2 44 4 83 4 87 0 16 55 70 89 88 43 23
109 25 154 6z"/>
<path d="M4971 943 c6 -15 65 -160 131 -321 l120 -292 -22 -61 c-29 -76 -59
-101 -111 -93 l-39 7 0 -61 c0 -59 1 -61 31 -67 73 -16 156 16 201 77 14 18
89 209 168 423 78 215 145 396 147 403 4 9 -12 12 -60 12 l-64 0 -83 -242
c-46 -134 -86 -249 -89 -256 -4 -6 -50 102 -103 240 l-96 253 -71 3 -71 3 11
-28z"/>
</g>
</svg>
